<svg width="225" height="76" viewBox="0 0 225 76" fill="none" xmlns="http://www.w3.org/2000/svg">
<rect x="8.99999" y="9" width="206" height="59" fill="#FFEAC1"/>
<path d="M222.5 36.5887V17.3098H215.083V9.9384H203.711V2H18V8.17162H8V14.3432H2V36.5887" stroke="#4B1715" stroke-width="4"/>
<path d="M222.5 36.5887V17.3098H215.083V9.9384H203.711V2H18V8.17162H8V14.3432H2V36.5887" stroke="#451416" stroke-width="4"/>
<path d="M222.5 36.5887V58.9863H215.083V66.3577L207.5 66.3578V70.327V72.9737L19 73.6824V66.1883H8V58.9863L2 58.9864V36.5887" stroke="#4B1715" stroke-width="4"/>
<path d="M222.5 36.5887V58.9863H215.083V66.3577L207.5 66.3578V70.327V72.9737L19 73.6824V66.1883H8V58.9863L2 58.9864V36.5887" stroke="#451416" stroke-width="4"/>
<path d="M215.5 37.5292V21.6277H208.571V15.5477H197.946V9H24.4478V14.0904H15.1054V19.1809H9.49999V37.5292" stroke="#4B1715" stroke-width="4"/>
<path d="M215.5 37.5292V21.6277H208.571V15.5477H197.946V9H24.4478V14.0904H15.1054V19.1809H9.49999V37.5292" stroke="#451416" stroke-width="4"/>
<path d="M215.5 37.5292V56.003H208.571V62.083L201.486 62.0831V65.3569V67.54L25.3821 68.1245V61.9433H15.1054V56.003L9.49999 56.0031V37.5292" stroke="#4B1715" stroke-width="4"/>
<path d="M215.5 37.5292V56.003H208.571V62.083L201.486 62.0831V65.3569V67.54L25.3821 68.1245V61.9433H15.1054V56.003L9.49999 56.0031V37.5292" stroke="#451416" stroke-width="4"/>
<path d="M218.5 37.4644V20.1545H211.369V13.536H200.435V6.40833H21.8832V11.9496H12.2687V17.4909H6.49999V37.4644" stroke="#A74E26" stroke-width="5"/>
<path d="M218.5 37.4644V57.5745H211.369V64.193L204.078 64.193V67.7568V70.1332L22.8447 70.7695V64.0408H12.2687V57.5745L6.49999 57.5745V37.4644" stroke="#A74E26" stroke-width="5"/>
<path d="M20 5H171" stroke="#4B1715" stroke-width="2"/>
<path d="M20 5H171" stroke="#F4A154" stroke-opacity="0.8" stroke-width="2"/>
<path d="M27 69H178" stroke="#F4A154" stroke-opacity="0.8"/>
<path d="M26 12H195" stroke="#D09157" stroke-opacity="0.5" stroke-width="3"/>
<path d="M27 64L199 64" stroke="#D09157" stroke-opacity="0.5" stroke-width="3"/>
<path d="M13 22L13 53" stroke="#D09157" stroke-opacity="0.5" stroke-width="3"/>
<path d="M212 24V55" stroke="#D09157" stroke-opacity="0.5" stroke-width="3"/>
<path d="M20 4V10" stroke="#4B1715" stroke-width="2"/>
<path d="M20 4V10" stroke="#F4A154" stroke-opacity="0.8" stroke-width="2"/>
<path d="M8.99999 37V43" stroke="#4B1715" stroke-opacity="0.67" stroke-width="2"/>
<path d="M207 72L20 72" stroke="#4B1715" stroke-opacity="0.5" stroke-width="3"/>
<path d="M202 5V11" stroke="#4B1715" stroke-width="2"/>
<path d="M202 5V11" stroke="#F4A154" stroke-opacity="0.8" stroke-width="2"/>
<path d="M11 60V66" stroke="#4B1715" stroke-width="2"/>
<path d="M11 60V66" stroke="#F4A154" stroke-opacity="0.8" stroke-width="2"/>
<path d="M24.4805 48.8412V46.8412H26.4805H28.4805V48.8412H26.4805H24.4805ZM24.4805 36.8412V34.8412H26.4805H28.4805H30.4805H32.4805V32.8412V30.8412V28.8412H30.4805H28.4805H26.4805V26.8412H28.4805H30.4805H32.4805H34.4805H36.4805H38.4805H40.4805H42.4805V24.8412H44.4805V26.8412H46.4805V28.8412H44.4805H42.4805V30.8412V32.8412V34.8412H44.4805V32.8412H46.4805V34.8412H48.4805V36.8412H46.4805H44.4805H42.4805V38.8412V40.8412V42.8412V44.8412V46.8412V48.8412H40.4805V46.8412V44.8412V42.8412V40.8412V38.8412V36.8412H38.4805H36.4805H34.4805V38.8412V40.8412H32.4805V42.8412V44.8412H30.4805V46.8412H28.4805V44.8412H30.4805V42.8412V40.8412H32.4805V38.8412V36.8412H30.4805H28.4805H26.4805H24.4805ZM36.4805 34.8412H38.4805H40.4805V32.8412V30.8412V28.8412H38.4805H36.4805H34.4805V30.8412V32.8412V34.8412H36.4805ZM48.4805 46.8412V44.8412H50.4805V46.8412H48.4805ZM58.4805 26.8412V24.8412H60.4805V26.8412H62.4805V28.8412H64.4805H66.4805H68.4805H70.4805V30.8412V32.8412V34.8412H68.4805H66.4805H64.4805H62.4805H60.4805H58.4805H56.4805H54.4805V36.8412V38.8412V40.8412H52.4805V42.8412V44.8412H50.4805V42.8412V40.8412H52.4805V38.8412V36.8412V34.8412V32.8412V30.8412V28.8412H54.4805H56.4805H58.4805H60.4805V26.8412H58.4805ZM56.4805 46.8412V44.8412V42.8412V40.8412V38.8412H58.4805H60.4805H62.4805H64.4805H66.4805H68.4805H70.4805V40.8412V42.8412V44.8412V46.8412V48.8412H68.4805V46.8412H66.4805H64.4805H62.4805H60.4805H58.4805V48.8412H56.4805V46.8412ZM60.4805 44.8412H62.4805H64.4805H66.4805H68.4805V42.8412V40.8412H66.4805H64.4805H62.4805H60.4805H58.4805V42.8412V44.8412H60.4805ZM56.4805 32.8412H58.4805H60.4805H62.4805H64.4805H66.4805H68.4805V30.8412H66.4805H64.4805H62.4805H60.4805H58.4805H56.4805H54.4805V32.8412H56.4805ZM74.4805 46.8412V44.8412H76.4805V46.8412H78.4805V44.8412V42.8412V40.8412V38.8412H76.4805V40.8412H74.4805H72.4805V38.8412H74.4805H76.4805V36.8412H78.4805V34.8412V32.8412H76.4805H74.4805H72.4805V30.8412H74.4805H76.4805H78.4805V28.8412H76.4805H74.4805V26.8412H76.4805H78.4805V24.8412H80.4805H82.4805V26.8412H80.4805V28.8412V30.8412H82.4805H84.4805H86.4805V28.8412V26.8412V24.8412H88.4805V26.8412V28.8412V30.8412H90.4805H92.4805V28.8412H94.4805V30.8412H96.4805V32.8412H94.4805H92.4805H90.4805H88.4805V34.8412V36.8412V38.8412H90.4805V40.8412H88.4805V42.8412H90.4805V44.8412H92.4805V46.8412H94.4805V44.8412V42.8412H96.4805V44.8412V46.8412V48.8412H94.4805H92.4805V46.8412H90.4805V44.8412H88.4805V42.8412H86.4805V44.8412H84.4805V46.8412H82.4805V44.8412H84.4805V42.8412H86.4805V40.8412V38.8412V36.8412V34.8412V32.8412H84.4805H82.4805H80.4805V34.8412V36.8412H82.4805V38.8412H80.4805V40.8412V42.8412V44.8412V46.8412V48.8412H78.4805H76.4805V46.8412H74.4805ZM90.4805 28.8412V26.8412H92.4805V28.8412H90.4805ZM90.4805 38.8412V36.8412H92.4805V38.8412H90.4805ZM92.4805 36.8412V34.8412H94.4805V36.8412H92.4805ZM112.48 46.8412V44.8412H114.48V46.8412H116.48V48.8412H114.48V46.8412H112.48ZM110.48 38.8412V36.8412H112.48V38.8412H114.48V40.8412V42.8412H112.48V40.8412V38.8412H110.48ZM100.48 46.8412H98.4805V44.8412V42.8412V40.8412V38.8412V36.8412V34.8412V32.8412V30.8412V28.8412H100.48V26.8412H102.48V28.8412H104.48H106.48V30.8412V32.8412H108.48V34.8412H106.48V36.8412V38.8412V40.8412V42.8412V44.8412V46.8412H104.48H102.48H100.48ZM102.48 44.8412H104.48V42.8412V40.8412V38.8412H102.48H100.48V40.8412V42.8412V44.8412H102.48ZM116.48 46.8412V44.8412V42.8412V40.8412V38.8412V36.8412V34.8412V32.8412V30.8412H114.48H112.48H110.48V32.8412H108.48V30.8412V28.8412H110.48V26.8412V24.8412H112.48V26.8412V28.8412H114.48H116.48V26.8412H118.48V28.8412H120.48V30.8412H118.48V32.8412V34.8412V36.8412V38.8412V40.8412V42.8412V44.8412V46.8412H116.48ZM102.48 36.8412H104.48V34.8412V32.8412V30.8412H102.48H100.48V32.8412V34.8412V36.8412H102.48ZM102.48 26.8412V24.8412H104.48V26.8412H102.48ZM122.48 32.8412V30.8412H124.48V32.8412H122.48ZM124.48 44.8412H122.48V42.8412V40.8412H124.48V42.8412H126.48H128.48H130.48V40.8412H132.48V42.8412V44.8412H130.48H128.48H126.48H124.48ZM124.48 40.8412V38.8412H126.48V40.8412H124.48ZM126.48 38.8412V36.8412H128.48V38.8412H126.48ZM128.48 36.8412V34.8412H130.48V36.8412H128.48ZM130.48 34.8412V32.8412V30.8412H132.48V32.8412V34.8412H130.48ZM124.48 30.8412V28.8412H126.48H128.48H130.48V30.8412H128.48H126.48H124.48ZM142.488 42.8412H144.488H146.488V44.8412H144.488H142.488H140.488V42.8412H142.488ZM140.488 42.8412H138.488V40.8412V38.8412V36.8412V34.8412V32.8412V30.8412H140.488V32.8412V34.8412V36.8412V38.8412V40.8412V42.8412ZM146.488 42.8412V40.8412V38.8412V36.8412V34.8412V32.8412V30.8412H148.488V32.8412V34.8412V36.8412V38.8412V40.8412V42.8412H146.488ZM140.488 30.8412V28.8412H142.488H144.488H146.488V30.8412H144.488H142.488H140.488ZM154.496 32.8412V30.8412H156.496V32.8412H154.496ZM156.496 44.8412H154.496V42.8412V40.8412H156.496V42.8412H158.496H160.496H162.496V40.8412H164.496V42.8412V44.8412H162.496H160.496H158.496H156.496ZM156.496 40.8412V38.8412H158.496V40.8412H156.496ZM158.496 38.8412V36.8412H160.496V38.8412H158.496ZM160.496 36.8412V34.8412H162.496V36.8412H160.496ZM162.496 34.8412V32.8412V30.8412H164.496V32.8412V34.8412H162.496ZM156.496 30.8412V28.8412H158.496H160.496H162.496V30.8412H160.496H158.496H156.496ZM170.504 42.8412V40.8412H172.504V42.8412H174.504H176.504H178.504V44.8412H176.504H174.504H172.504V42.8412H170.504ZM178.504 42.8412V40.8412V38.8412V36.8412H180.504V38.8412V40.8412V42.8412H178.504ZM174.504 36.8412H172.504V34.8412V32.8412V30.8412V28.8412H174.504H176.504H178.504H180.504V30.8412H178.504H176.504H174.504V32.8412V34.8412H176.504H178.504V36.8412H176.504H174.504ZM184.512 44.8412V42.8412H186.512H188.512V44.8412H186.512H184.512ZM184.512 32.8412V30.8412H186.512H188.512V32.8412H190.512V34.8412H192.512H194.512V36.8412H196.512V38.8412H194.512V40.8412H192.512H190.512V42.8412H188.512V40.8412H190.512V38.8412H192.512H194.512V36.8412H192.512H190.512V34.8412H188.512V32.8412H186.512H184.512Z" fill="black"/>
</svg>
